<?xml version="1.0" standalone="no"?>
<!DOCTYPE svg PUBLIC "-//W3C//DTD SVG 20010904//EN"
 "http://www.w3.org/TR/2001/REC-SVG-20010904/DTD/svg10.dtd">
<svg version="1.0" xmlns="http://www.w3.org/2000/svg"
 width="100.000000pt" height="100.000000pt" viewBox="0 0 100.000000 100.000000"
 preserveAspectRatio="xMidYMid meet">

<g transform="translate(0.000000,100.000000) scale(0.100000,-0.100000)"
fill="#000000" stroke="none">
<path d="M268 953 c-28 -4 -28 -5 -28 -86 l0 -82 45 3 c60 5 87 -14 114 -81
l22 -54 -135 -304 -135 -304 96 -3 c53 -1 101 -1 107 1 6 3 42 82 81 176 38
94 72 168 75 164 4 -5 26 -60 49 -123 50 -137 77 -181 124 -203 35 -17 130
-23 175 -11 20 6 22 12 22 88 l0 81 -43 -3 c-28 -2 -47 1 -54 10 -6 7 -56 134
-112 281 -139 369 -156 401 -236 438 -38 18 -101 22 -167 12z m150 -47 c66
-35 85 -71 217 -420 60 -158 111 -278 124 -292 14 -15 35 -24 52 -24 28 0 29
-2 29 -46 l0 -46 -71 4 c-64 3 -74 7 -98 34 -16 18 -50 93 -85 187 -50 136
-61 158 -78 155 -15 -2 -37 -45 -96 -190 l-77 -188 -62 0 -62 0 18 43 c10 23
67 150 126 282 l107 240 -17 54 c-23 73 -68 121 -123 128 -41 5 -42 7 -42 43
0 20 3 40 7 43 12 12 103 7 131 -7z"/>
</g>
</svg>
